# xmcd CD database file
# Copyright (C) 1993-2000  Ti Kan
#
# Track frame offsets:
#	150
#	1955
#	12182
#	30680
#	44225
#	57337
#	71700
#	90915
#	104015
#	122735
#	137690
#
# Disc length: 2241 seconds
#
# Revision: 2
# Processed by: cddbd v1.4PL0 Copyright (c) Steve Scherf et al.
# Submitted via: xmcd 2.6 PL0
#
DISCID=9408bf0b
DTITLE=Jimmy Witherspoon - Jimmy Witherspoon with the Junior Mance Trio
DYEAR=1900
DGENRE=
TTITLE0=Introduction
TTITLE1=Lowdown Dirty Shame
TTITLE2=They Call It Stormy Monday
TTITLE3=Kansas City
TTITLE4=Trouble In Mind
TTITLE5=Times Gettin' Tougher Than Tough
TTITLE6=Ain't Nobody's Business
TTITLE7=I'm Gonna Move To The Outskirts Of Town
TTITLE8=Going Down Slow
TTITLE9=Roll 'Em Pete
TTITLE10=No Rollin' Blues
EXTD=Stony Plain/SPCD 1231
EXTT0=
EXTT1=
EXTT2=
EXTT3=
EXTT4=
EXTT5=
EXTT6=
EXTT7=
EXTT8=
EXTT9=
EXTT10=
PLAYORDER=
